<?xml version="1.0" encoding="UTF-8" standalone="no"?>
<!-- Uploaded to: SVG Repo, www.svgrepo.com, Generator: SVG Repo Mixer Tools -->

<svg
   fill="currentColor"
   height="800px"
   width="800px"
   version="1.1"
   id="Capa_1"
   viewBox="0 0 219.792 219.792"
   xml:space="preserve"
   sodipodi:docname="chef_hat.svg"
   inkscape:version="1.4.2 (f4327f4, 2025-05-13)"
   xmlns:inkscape="http://www.inkscape.org/namespaces/inkscape"
   xmlns:sodipodi="http://sodipodi.sourceforge.net/DTD/sodipodi-0.dtd"
   xmlns="http://www.w3.org/2000/svg"
   xmlns:svg="http://www.w3.org/2000/svg"><defs
   id="defs1" /><sodipodi:namedview
   id="namedview1"
   pagecolor="#505050"
   bordercolor="#eeeeee"
   borderopacity="1"
   inkscape:showpageshadow="0"
   inkscape:pageopacity="0"
   inkscape:pagecheckerboard="0"
   inkscape:deskcolor="#505050"
   inkscape:zoom="0.504375"
   inkscape:cx="347.95539"
   inkscape:cy="327.13755"
   inkscape:window-width="958"
   inkscape:window-height="1000"
   inkscape:window-x="-7"
   inkscape:window-y="0"
   inkscape:window-maximized="0"
   inkscape:current-layer="g1" />
<g
   id="g1">
	
<path
   id="path2"
   style="fill:none;stroke:#000000;stroke-width:8.2422;stroke-opacity:1;stroke-dasharray:none;stroke-linecap:round"
   d="M 109.2934,6.7558137 C 91.303728,6.7558707 74.805287,16.755476 66.481714,32.703719 64.570159,32.474162 62.646586,32.359124 60.721296,32.359221 34.050343,32.35917 12.429251,53.980262 12.429302,80.651215 c 8e-6,23.733975 17.246449,43.949835 40.684057,47.688855 v 83.54672 H 165.8614 v -83.55423 c 24.23887,-2.94617 42.46495,-23.52165 42.46503,-47.938914 5e-5,-26.670952 -21.62104,-48.292043 -48.29199,-48.291994 -2.6481,-1.14e-4 -5.29173,0.217586 -7.90414,0.650898 C 143.81582,16.777348 127.30278,6.7559588 109.2934,6.7558137 Z"
   sodipodi:nodetypes="ccccccccsccc" /><path
   style="fill:none;stroke:#000000;stroke-width:8.2422;stroke-opacity:1;stroke-dasharray:none;stroke-linecap:round"
   d="m 137.26787,132.36544 v 50.65838"
   id="path3" /><path
   style="fill:none;stroke:#000000;stroke-width:8.2422;stroke-opacity:1;stroke-dasharray:none;stroke-linecap:round"
   d="m 109.39265,130.52465 v 50.65838"
   id="path3-8" /><path
   style="fill:none;stroke:#000000;stroke-width:8.2422;stroke-opacity:1;stroke-dasharray:none;stroke-linecap:round"
   d="m 82.252969,131.13916 v 50.65838"
   id="path3-5" /><path
   style="fill:none;stroke:#000000;stroke-width:8.2422;stroke-opacity:1;stroke-dasharray:none;stroke-linecap:round"
   d="M 53.381949,183.02382 H 164.77591"
   id="path4" /></g>
</svg>
